<svg xmlns="http://www.w3.org/2000/svg" height="48" viewBox="0 96 960 960" width="48"><path d="M224.89 800.5Q288 757 348.75 734T480 711q70.5 0 131.5 23t125 66.5Q781 746 799.25 691.351q18.25-54.648 18.25-115.25 0-144.101-96.75-240.851T480 238.5q-144 0-240.75 96.75T142.5 576.101q0 60.602 18.75 115.25Q180 746 224.89 800.5ZM479.869 605q-57.369 0-96.619-39.381-39.25-39.38-39.25-96.75 0-57.369 39.381-96.619 39.38-39.25 96.75-39.25 57.369 0 96.619 39.381 39.25 39.38 39.25 96.75 0 57.369-39.381 96.619-39.38 39.25-96.75 39.25Zm.349 366q-81.125 0-153.283-31.263-72.159-31.263-125.797-85Q147.5 801 116.25 729.19 85 657.381 85 575.734q0-81.141 31.263-153.049 31.263-71.909 85-125.547Q255 243.5 326.81 212.25 398.619 181 480.266 181q81.141 0 153.049 31.263 71.909 31.263 125.547 85Q812.5 351 843.75 422.869 875 494.739 875 575.782q0 81.124-31.263 153.283-31.263 72.159-85 125.797Q705 908.5 633.131 939.75 561.261 971 480.218 971Zm-.248-57.5q54.53 0 106.28-15.75T690 842q-52-36-104.23-54.75-52.229-18.75-105.71-18.75-53.481 0-106.02 18.5Q321.5 805.5 270 842q52 40 103.72 55.75t106.25 15.75Zm.03-366q34.5 0 56.5-22t22-56.5q0-34.5-22-56.5t-56.5-22q-34.5 0-56.5 22t-22 56.5q0 34.5 22 56.5t56.5 22Zm0-78.5Zm0 372Z"/></svg>