<svg xmlns="http://www.w3.org/2000/svg" height="48" viewBox="0 96 960 960" width="48"><path d="M45.5 889.5v-91q0-34.62 17.458-62.391 17.459-27.77 49.326-41.554Q185 663 242.5 649 300 635 361 635t117.924 14q56.923 14 129.554 45.489 31.975 13.794 49.999 41.582Q676.5 763.859 676.5 798.5v91h-631Zm690.5 0V799q0-62.5-32.011-102.355-32.01-39.854-83.489-64.145 68 8.5 127.75 23.75t97.25 34.25q32 18.5 50.75 46T915 798.876V889.5H736Zm-375-314q-65.237 0-106.119-40.881Q214 493.737 214 428.5t40.881-106.119Q295.763 281.5 361 281.5t106.119 40.881Q508 363.263 508 428.5t-40.881 106.119Q426.237 575.5 361 575.5Zm351-147.314q0 64.839-40.881 105.827Q630.237 575 565 575q-10.5 0-23.178-1.344t-23.322-5.21q24.018-24.264 36.259-59.867Q567 472.976 567 428.473q0-44.502-12.25-78.451Q542.5 316.073 518.5 288q10-2.812 23-4.656 13-1.844 23.5-1.844 65.237 0 106.119 41.026Q712 363.553 712 428.186ZM103 832h516v-33.372q0-16.318-9.75-31.223Q599.5 752.5 586 746q-72.5-32-120.425-42.75-47.924-10.75-104.325-10.75-56.569 0-105.41 10.75Q207 714 135 746q-14 6.5-23 21.5t-9 31V832Zm257.938-314q39.062 0 64.312-25.188t25.25-64.25q0-39.062-25.188-64.312T361.062 339Q322 339 296.75 364.188t-25.25 64.25q0 39.062 25.188 64.312t64.25 25.25ZM361 832Zm0-403.5Z"/></svg>