<?xml version="1.0" encoding="utf-8"?>
<!-- Generator: Adobe Illustrator 16.0.0, SVG Export Plug-In . SVG Version: 6.00 Build 0)  -->
<!DOCTYPE svg PUBLIC "-//W3C//DTD SVG 1.1//EN" "http://www.w3.org/Graphics/SVG/1.1/DTD/svg11.dtd">
<svg version="1.1" id="Layer_1" xmlns="http://www.w3.org/2000/svg" xmlns:xlink="http://www.w3.org/1999/xlink" x="0px" y="0px"
	 width="150.134px" height="150.482px" viewBox="0 0 150.134 150.482" enable-background="new 0 0 150.134 150.482"
	 xml:space="preserve">
<g>
	<path fill-rule="evenodd" clip-rule="evenodd" fill="#FEFEFE" d="M21.044,127.229c0.333,0.334,0.667,0.666,1,1
		c0.917,0.75,1.882,1.447,2.739,2.26c2.104,1.994,4.237,3.91,6.557,5.691c4.108,3.156,8.777,5.271,13.122,7.967
		c2.823-0.383,4.64,2.896,7.582,2.082c0.671,2.123,2.51,0.498,3.688,1.15c3.776,2.09,8.136,1.867,12.207,2.701
		c3.482,0.715,7.235,0.299,10.854,0.106c3.645-0.193,7.272-0.718,10.902-1.146c0.146-0.018,0.235-0.53,0.35-0.813
		c3.834,0.143,7.491-0.994,10.819-2.529c2.39-1.102,5.437-1.031,7.181-3.471c0.334,0,0.666,0,1,0c0.334-0.334,0.666-0.666,1-1
		c0.334,0,0.666,0,1,0c0.334-0.334,0.666-0.666,1-1c7.632-4.168,14.313-9.794,19-16c1.992-1.148,3.035-3.127,4.471-4.799
		c4.875-5.678,7.518-12.49,10.478-19.15c0.682-1.536,0.717-3.359,1.051-5.051c0.334-0.687,0.771-1.343,0.982-2.065
		c0.957-3.291,0.57-6.855,2.018-10.052c-0.396-6.291,0.955-12.674-1-18.883c0-0.667,0-1.333,0-2c-0.15-0.758,0.496-1.915-1-2
		c0.387-2.771-0.617-5.369-1.451-7.845c-2.443-7.247-5.353-14.319-10.548-20.155c-1.481-4.438-6.176-6.425-8.058-10.558
		c-2.607-0.867-3.906-3.315-5.923-4.887c-2.479-1.93-5.001-3.821-7.635-5.529c-3.87-2.51-8.018-4.508-12.385-6.026
		c-6.343-2.797-13.173-3.74-19.899-4.892C78.59-0.272,74.84,0.099,71.189,0.266c-3.529,0.162-7.047,0.593-10.559,1
		c-0.559,0.065-1.059,0.629-1.586,0.962c-5.499,0.438-10.448,2.609-15.371,4.869c-6.908,3.172-13.231,7.197-18.631,12.608
		c-1.252,1.254-2.661,2.353-3.998,3.523c-1.568,1.734-3.172,3.438-4.693,5.212c-1.451,1.693-3.114,3.299-4.159,5.228
		c-2.844,5.252-5.833,10.496-7.926,16.059c-1.225,3.255-2.534,6.785-2.222,10.5c-0.333,0.333-0.667,0.667-1,1c0,1.333,0,2.667,0,4
		c-0.333,0.688-0.943,1.37-0.957,2.064c-0.11,5.771-0.483,17.116,1.957,24.936c0.451,1.951,0.674,3.991,1.396,5.836
		c2.163,5.531,3.858,11.307,7.611,16.084c2.073,2.639,3.084,6.064,5.994,8.08c1,1.334,2,2.666,3,4
		C20.377,126.563,20.71,126.895,21.044,127.229z"/>
	<path fill-rule="evenodd" clip-rule="evenodd" fill="#CAC3D2" d="M59.044,2.229c0.527-0.333,1.027-0.897,1.586-0.962
		c3.512-0.408,7.03-0.839,10.559-1c3.651-0.167,7.401-0.538,10.956,0.071c6.727,1.152,13.557,2.095,19.899,4.892
		c-0.333,0.862-0.684,1.717-0.997,2.586c-1.675,4.638-3.241,9.319-5.04,13.908c-1.516,3.868-3.672,7.517-4.873,11.467
		c-1.667,5.487-4.123,10.633-6.096,15.979c-1.973,5.346-3.828,10.747-6.074,15.977c-0.932,2.169-1.271,4.937-3.92,6.082
		c-0.333,0-0.667,0-1,0c0-7.896,0-15.793,0-24c-2.114,0-4.057,0-6,0c-0.333-1.679-0.718-3.35-0.989-5.039
		c-0.57-3.538-2.348-6.836-2.086-10.537c-2.411-4.791-2.664-10.141-4.052-15.188c-0.519-1.885-0.093-4.234-1.022-5.454
		c-2.137-2.805-1.555-5.435-0.855-8.288C59.077,2.567,59.044,2.394,59.044,2.229z"/>
	<path fill-rule="evenodd" clip-rule="evenodd" fill="#BED6D2" d="M75.044,71.229c2.649-1.146,2.988-3.913,3.92-6.082
		c2.247-5.23,4.101-10.631,6.074-15.977c1.973-5.347,4.43-10.493,6.096-15.979c1.2-3.95,3.357-7.6,4.873-11.467
		c1.799-4.589,3.365-9.27,5.04-13.908c0.313-0.869,0.664-1.724,0.997-2.586c4.367,1.518,8.515,3.517,12.385,6.026
		c2.634,1.708,5.156,3.599,7.635,5.529c2.017,1.572,3.315,4.02,5.923,4.887c1.882,4.133,6.576,6.119,8.058,10.558
		c-2.797,1.963-5.585,3.939-8.393,5.887c-3.184,2.208-6.379,4.401-9.584,6.579c-0.932,0.633-1.17,1.493-1.023,2.534
		c-5.255,0-10.51,0-15.658,0c-0.499,1.75-0.856,3.25-1.354,4.702c-1.635,4.775-3.322,9.533-4.988,14.298
		c-1.051,0.218-2.192,0.246-3.139,0.687c-4.378,2.042-8.724,4.155-13.025,6.353c-0.75,0.383-1.23,1.293-1.835,1.96
		c-0.667,0-1.333,0-2,0C75.044,73.895,75.044,72.562,75.044,71.229z"/>
	<path fill-rule="evenodd" clip-rule="evenodd" fill="#C7D6E8" d="M52.044,146.229c-2.941,0.814-4.759-2.465-7.582-2.082
		c-4.345-2.695-9.014-4.811-13.122-7.967c-2.32-1.781-4.453-3.697-6.557-5.691c-0.857-0.813-1.823-1.51-2.739-2.26
		c-0.333-0.334-0.667-0.666-1-1s-0.667-0.666-1-1c-1-1.334-2-2.666-3-4c0.75-0.916,1.342-2.061,2.278-2.707
		c3.145-2.172,6.2-4.419,9.02-7.021c2.089-1.928,4.566-3.429,6.72-5.293c3.74-3.236,8.254-5.63,10.982-9.979c0.667-1,1.333-2,2-3
		c2.013-0.081,3.52-1.116,4.964-2.43c2.819-2.565,5.116-3.798,8.036-4.57c0.107,6.335-0.228,12.684,0.2,19c1.496,0,2.648,0,3.8,0
		c-0.459,2.293-0.74,4.639-1.412,6.867c-1.772,5.874-3.713,11.697-5.589,17.541c-0.328,1.021-0.924,2.033-0.953,3.063
		c-0.115,3.993-2.886,7.189-3.225,11.121C53.82,145.338,52.678,145.762,52.044,146.229z"/>
	<path fill-rule="evenodd" clip-rule="evenodd" fill="#D3C8CF" d="M59.044,2.229c0,0.165,0.033,0.338-0.005,0.494
		c-0.699,2.854-1.282,5.483,0.855,8.288c0.929,1.22,0.503,3.569,1.022,5.454c1.389,5.047,1.641,10.398,4.052,15.188
		c-0.262,3.701,1.516,6.999,2.086,10.537c0.271,1.689,0.656,3.359,0.989,5.039c-2.551,0-5.102,0-7.675,0
		c-0.482,0.728-0.904,1.364-1.325,2c-0.333,0.333-0.667,0.667-1,1c0,0.333,0,0.667,0,1c-0.333,0.333-0.667,0.667-1,1
		c0,0.333,0,0.667,0,1c-0.333,0.333-0.667,0.667-1,1s-0.667,0.667-1,1c-1.957-1.457-4.012-2.8-5.844-4.401
		c-1.997-1.745-3.785-3.728-5.665-5.607c-2.819-2.819-5.356-6.017-8.521-8.372c-5.295-3.942-9.654-8.733-13.971-13.62
		c1.337-1.17,2.746-2.269,3.998-3.523c5.399-5.411,11.723-9.436,18.631-12.608C48.596,4.837,53.545,2.667,59.044,2.229z"/>
	<path fill-rule="evenodd" clip-rule="evenodd" fill="#DCE0CE" d="M52.044,146.229c0.634-0.467,1.776-0.891,1.821-1.408
		c0.339-3.932,3.11-7.128,3.225-11.121c0.029-1.029,0.625-2.041,0.953-3.063c1.876-5.844,3.817-11.667,5.589-17.541
		c0.672-2.229,0.953-4.574,1.412-6.867c2.941,0,5.881,0,9,0c0-11.874,0-23.437,0-35c0.333,0,0.667,0,1,0c0,1.333,0,2.667,0,4
		c0,2.156-0.649,4.589,0.131,6.411c1.769,4.127,1.948,8.511,3.071,12.688c0.599,2.23,0.022,4.622,1.068,6.473
		c0.743,1.315,0.501,2.473,0.749,3.693c0.245,1.206,0.949,2.386,0.928,3.568c-0.091,5.148,1.54,10.044,2.244,15.064
		c0.305,2.174,0.098,4.67,0.996,6.484c0.82,1.657,0.528,3.121,0.821,4.651c0.292,1.528,0.859,3.03,0.95,4.564
		c0.196,3.333,1.317,6.372,2.31,9.401c0.736,0,1.234,0,1.731,0c-0.115,0.282-0.204,0.795-0.35,0.813
		c-3.629,0.428-7.257,0.952-10.902,1.146c-3.618,0.192-7.371,0.608-10.854-0.106c-4.071-0.834-8.431-0.611-12.207-2.701
		C54.554,146.727,52.715,148.352,52.044,146.229z"/>
	<path fill-rule="evenodd" clip-rule="evenodd" fill="#E1D2CA" d="M21.044,23.229c4.317,4.886,8.676,9.677,13.971,13.62
		c3.164,2.355,5.701,5.553,8.521,8.372c1.879,1.879,3.668,3.862,5.665,5.607c1.832,1.601,3.887,2.944,5.844,4.401
		c-1.891,6.537-5.842,12.052-8.854,18.868c-0.997-1.467-1.666-2.264-2.13-3.167c-3.03-5.89-6.006-11.807-9.021-17.705
		c-1.055-2.063-2.168-4.097-3.177-5.997c-4.842,0-9.33,0-13.818,0c-1.358,0.011-0.983,1.049-0.986,1.77
		c-0.025,5.449-0.007,10.898-0.032,16.347c-0.001,0.271-0.268,0.542-0.238,0.486c-1.421,0.504-2.571,0.912-4.12,1.46
		c-0.249-0.232-0.669-0.969-1.144-1.006c-1.805-0.142-3.641,0.073-5.441-0.095c-1.694-0.158-3.36-0.629-5.038-0.962
		c0-1.333,0-2.667,0-4c0.333-0.333,0.667-0.667,1-1c-0.312-3.715,0.997-7.245,2.222-10.5c2.093-5.563,5.082-10.807,7.926-16.059
		c1.044-1.929,2.708-3.535,4.159-5.228C17.872,26.666,19.476,24.963,21.044,23.229z"/>
	<path fill-rule="evenodd" clip-rule="evenodd" fill="#F1E9B3" d="M111.044,141.229c-0.334,0-0.666,0-1,0
		c-0.334,0.334-0.666,0.666-1,1c-0.334,0-0.666,0-1,0c-0.113-0.613-0.092-1.292-0.358-1.829
		c-5.634-11.348-11.768-22.452-16.642-34.171c1.578,0,3.157,0,4.982,0c0.361-1.776,0.689-3.389,1.018-5c0.333-0.333,0.667-0.667,1-1
		c0-0.667,0-1.333,0-2c0.333-0.333,0.667-0.667,1-1c1.199,0.699,2.562,1.219,3.566,2.133c2.629,2.391,5.24,4.778,7.971,7.069
		c5.498,4.611,10.618,9.681,15.777,14.682c1.406,1.363,2.951,2.338,4.686,3.116c-4.687,6.206-11.368,11.832-19,16
		C111.71,140.563,111.378,140.895,111.044,141.229z"/>
	<path fill-rule="evenodd" clip-rule="evenodd" fill="#E9E5BE" d="M91.044,106.229c4.874,11.719,11.007,22.823,16.642,34.171
		c0.267,0.537,0.245,1.216,0.358,1.829c-1.745,2.439-4.792,2.369-7.181,3.471c-3.328,1.535-6.985,2.672-10.819,2.529
		c-0.498,0-0.995,0-1.731,0c-0.993-3.029-2.114-6.068-2.31-9.401c-0.09-1.534-0.657-3.036-0.95-4.564
		c-0.293-1.53,0-2.994-0.821-4.651c-0.898-1.814-0.691-4.311-0.996-6.484c-0.705-5.021-2.335-9.916-2.244-15.064
		c0.021-1.183-0.684-2.362-0.928-3.568c-0.248-1.221-0.005-2.378-0.749-3.693c-1.046-1.851-0.469-4.243-1.068-6.473
		c-1.123-4.177-1.303-8.561-3.071-12.688c-0.78-1.821-0.131-4.255-0.131-6.411c0.667,0,1.333,0,2,0c0,0.166-0.049,0.456,0.007,0.478
		c4.574,1.787,9.12,3.664,13.993,4.522c-0.667,1.667-1.333,3.333-2,5c-1.353,0.346-2.094-0.539-2.896-1.384
		c-2.563-2.694-5.613-4.697-8.925-6.682c-0.098,0.756-0.242,1.098-0.164,1.378c1.481,5.317,3.848,10.287,6.137,15.278
		c0.468,1.019,1.495,1.755,2.848,1.409c-1,3-2,6-3,9c-0.333,0.334-0.667,0.666-1,1c0.412,0.334,0.813,0.94,1.236,0.955
		C85.865,106.273,88.456,106.229,91.044,106.229z"/>
	<path fill-rule="evenodd" clip-rule="evenodd" fill="#B7E4D1" d="M117.044,47.229c-0.146-1.042,0.092-1.901,1.023-2.534
		c3.205-2.177,6.4-4.37,9.584-6.579c2.808-1.948,5.596-3.924,8.393-5.887c5.195,5.836,8.105,12.908,10.548,20.155
		c0.834,2.476,1.838,5.074,1.451,7.845c0.15,0.758-0.496,1.915,1,2c0,0.667,0,1.333,0,2c-3.137,0.559-6.25,1.356-9.484,1
		c-1.773,2.41-4.512,0.396-6.815,1.504c-2.149,1.034-5.102,0.397-7.7,0.496c-0.334-0.333-0.666-0.667-1-1c0-0.667,0-1.333,0-2
		c-0.334-0.333-0.666-0.667-1-1c-1.261-3.761-2.549-7.512-3.77-11.286C118.731,50.267,118.954,48.251,117.044,47.229z"/>
	<path fill-rule="evenodd" clip-rule="evenodd" fill="#E0E8BB" d="M131.044,124.229c-1.734-0.778-3.279-1.753-4.686-3.116
		c-5.159-5.001-10.279-10.07-15.777-14.682c-2.73-2.291-5.342-4.679-7.971-7.069c-1.004-0.914-2.367-1.434-3.566-2.133
		c-0.351-1.861,0.712-3.32,1.403-4.921c6.077,0,12.167,0,18.438,0c1.467,4.688,2.927,9.356,4.304,13.757c4.834,0,9.263,0,13.98,0
		c-0.611-1.771-1.311-3.305-1.662-4.914c-0.659-3.023-2.57-5.696-2.463-8.922c1.517,0.264,3.313-0.731,4.503,1
		c3.302,0.018,6.151,2.189,9.497,2c-0.334,1.691-0.369,3.515-1.051,5.051c-2.96,6.66-5.603,13.473-10.478,19.15
		C134.079,121.102,133.036,123.08,131.044,124.229z"/>
	<path fill-rule="evenodd" clip-rule="evenodd" fill="#D0D5DE" d="M46.044,97.229c-2.728,4.349-7.242,6.742-10.982,9.979
		c-2.154,1.864-4.631,3.365-6.72,5.293c-2.82,2.603-5.875,4.85-9.02,7.021c-0.936,0.646-1.528,1.791-2.278,2.707
		c-2.909-2.016-3.921-5.441-5.994-8.08c-3.752-4.777-5.448-10.553-7.611-16.084c-0.721-1.845-0.944-3.885-1.396-5.836
		c1.811,0,3.982,0.643,5.357-0.131c3.036-1.709,6.214-1.937,8.866-1.872c1.689-1.332-0.446-3.358,1.777-3.997c0,6.609,0,13.218,0,20
		c2.29,0,4.262,0.016,6.235-0.004c1.931-0.02,3.862-0.076,5.765-0.115c0-2.557,0-4.719,0-6.881c0.333-0.429,0.934-0.846,0.955-1.29
		c0.101-2.132,0.045-4.271,0.045-6.344c1.673-0.493,3.201-0.815,4.623-1.398c1.476-0.604,3.29-0.5,4.377-1.968
		c0.333,0.333,0.667,0.667,1,1s0.667,0.667,1,1c0,0.333,0,0.667,0,1c0.333,0.333,0.667,0.667,1,1c0,0.333,0,0.667,0,1
		c0.333,0.333,0.667,0.667,1,1C44.71,95.229,45.377,96.229,46.044,97.229z"/>
	<path fill-rule="evenodd" clip-rule="evenodd" fill="#C5E6C9" d="M147.043,95.229c-3.345,0.189-6.195-1.982-9.497-2
		c-1.19-1.731-2.986-0.736-4.503-1c-0.334-0.257-0.863-0.451-0.971-0.782c-1.689-5.221-2.912-10.569-4.803-15.759
		c-0.961-2.635-2.686-5.345-2.227-8.459c2.599-0.099,5.551,0.538,7.7-0.496c2.304-1.108,5.042,0.906,6.815-1.504
		c3.234,0.356,6.347-0.441,9.484-1c1.955,6.208,0.604,12.592,1,18.883c-1.447,3.197-1.061,6.761-2.018,10.052
		C147.815,93.886,147.377,94.542,147.043,95.229z"/>
	<path fill-rule="evenodd" clip-rule="evenodd" fill="#DCD4D2" d="M18.044,86.229c-2.223,0.639-0.088,2.665-1.777,3.997
		c-2.651-0.065-5.83,0.163-8.866,1.872c-1.375,0.774-3.546,0.131-5.357,0.131c-2.44-7.82-2.067-19.165-1.957-24.936
		c0.013-0.694,0.623-1.376,0.957-2.064c1.678,0.333,3.344,0.805,5.038,0.962c1.801,0.167,3.636-0.047,5.441,0.095
		c0.475,0.037,0.896,0.774,1.144,1.006c1.549-0.549,2.699-0.957,4.12-1.46c-0.029,0.056,0.237-0.215,0.238-0.486
		c0.024-5.449,0.007-10.898,0.032-16.347c0.003-0.72-0.372-1.759,0.986-1.77C18.044,60.229,18.044,73.229,18.044,86.229z"/>
	<path fill-rule="evenodd" clip-rule="evenodd" fill="#C5E6C9" d="M149.043,62.229c-1.496-0.085-0.85-1.242-1-2
		C149.54,60.314,148.893,61.471,149.043,62.229z"/>
	<path fill-rule="evenodd" clip-rule="evenodd" fill="#DCD4D2" d="M2.044,60.229c-0.333,0.333-0.667,0.667-1,1
		C1.377,60.895,1.71,60.562,2.044,60.229z"/>
	<path fill-rule="evenodd" clip-rule="evenodd" fill="#D0D5DE" d="M20.044,126.229c0.333,0.334,0.667,0.666,1,1
		C20.71,126.895,20.377,126.563,20.044,126.229z"/>
	<path fill-rule="evenodd" clip-rule="evenodd" fill="#D0D5DE" d="M21.044,127.229c0.333,0.334,0.667,0.666,1,1
		C21.71,127.895,21.377,127.563,21.044,127.229z"/>
	<path fill-rule="evenodd" clip-rule="evenodd" fill="#E9E5BE" d="M111.044,141.229c0.334-0.334,0.666-0.666,1-1
		C111.71,140.563,111.378,140.895,111.044,141.229z"/>
	<path fill-rule="evenodd" clip-rule="evenodd" fill="#E9E5BE" d="M109.044,142.229c0.334-0.334,0.666-0.666,1-1
		C109.71,141.563,109.378,141.895,109.044,142.229z"/>
	<path fill-rule="evenodd" clip-rule="evenodd" fill="#FEFEFE" d="M18.044,86.229c0-13,0-26,0-39c4.488,0,8.976,0,13.818,0
		c1.009,1.9,2.122,3.934,3.177,5.997c3.014,5.898,5.99,11.815,9.021,17.705c0.464,0.902,1.133,1.699,2.13,3.167
		c3.012-6.816,6.964-12.332,8.854-18.868c0.333-0.333,0.667-0.667,1-1s0.667-0.667,1-1c0-0.333,0-0.667,0-1
		c0.333-0.333,0.667-0.667,1-1c0-0.333,0-0.667,0-1c0.333-0.333,0.667-0.667,1-1c0.421-0.636,0.843-1.272,1.325-2
		c2.573,0,5.124,0,7.675,0c1.943,0,3.886,0,6,0c0,8.207,0,16.104,0,24c0,11.563,0,23.126,0,35c-3.119,0-6.059,0-9,0
		c-1.152,0-2.304,0-3.8,0c-0.428-6.316-0.093-12.665-0.2-19c0-5.277,0-10.554,0-16.041c-0.57,0.315-0.909,0.384-1.014,0.579
		c-4.009,7.48-7.996,14.972-11.986,22.462c-0.667,1-1.333,2-2,3c-0.667-1-1.333-2-2-3c-0.333-0.333-0.667-0.667-1-1
		c0-0.333,0-0.667,0-1c-0.333-0.333-0.667-0.667-1-1c0-0.333,0-0.667,0-1c-0.333-0.333-0.667-0.667-1-1s-0.667-0.667-1-1
		c0-0.497,0.177-1.085-0.027-1.476c-2.626-5.042-5.303-10.058-7.977-15.074c-0.444-0.833-0.938-1.638-1.409-2.456
		c-0.196,0.098-0.392,0.195-0.587,0.293c0,9.905,0,19.809,0,29.713c0,2.162,0,4.324,0,6.881c-1.903,0.039-3.834,0.096-5.765,0.115
		c-1.973,0.02-3.945,0.004-6.235,0.004C18.044,99.447,18.044,92.837,18.044,86.229z"/>
	<path fill-rule="evenodd" clip-rule="evenodd" fill="#FEFEFE" d="M125.044,67.229c-0.459,3.114,1.266,5.824,2.227,8.459
		c1.891,5.19,3.113,10.538,4.803,15.759c0.107,0.331,0.637,0.525,0.971,0.782c-0.107,3.226,1.804,5.898,2.463,8.922
		c0.352,1.609,1.051,3.143,1.662,4.914c-4.718,0-9.146,0-13.98,0c-1.377-4.4-2.837-9.069-4.304-13.757c-6.271,0-12.361,0-18.438,0
		c-0.691,1.601-1.753,3.06-1.403,4.921c-0.333,0.333-0.667,0.667-1,1c0,0.667,0,1.333,0,2c-0.333,0.333-0.667,0.667-1,1
		c-0.328,1.611-0.656,3.224-1.018,5c-1.826,0-3.404,0-4.982,0c-2.588,0-5.179,0.045-7.764-0.045
		c-0.422-0.015-0.824-0.621-1.236-0.955c0.333-0.334,0.667-0.666,1-1c1-3,2-6,3-9c1-3.333,2-6.667,3-10c0.667-1.667,1.333-3.333,2-5
		c0.218-1.051,0.362-2.125,0.667-3.15c1.081-3.625,2.217-7.235,3.333-10.85c1.667-4.765,3.353-9.522,4.988-14.298
		c0.498-1.452,0.855-2.952,1.354-4.702c5.147,0,10.403,0,15.658,0c1.91,1.022,1.688,3.038,2.23,4.714
		c1.221,3.773,2.509,7.525,3.77,11.286c0.334,0.333,0.666,0.667,1,1c0,0.667,0,1.333,0,2
		C124.378,66.562,124.71,66.895,125.044,67.229z M109.815,60.438c-0.231-0.056-0.463-0.111-0.693-0.166
		c-2.021,6.895-4.042,13.789-6.143,20.956c2.346,0,4.319,0.016,6.291-0.004c1.935-0.02,3.868-0.077,6.354-0.13
		C113.595,73.882,111.705,67.16,109.815,60.438z"/>
	<path fill-rule="evenodd" clip-rule="evenodd" fill="#C3E5CB" d="M95.044,66.229c-1.115,3.615-2.251,7.225-3.333,10.85
		c-0.306,1.025-0.45,2.099-0.667,3.15c-4.874-0.858-9.419-2.735-13.993-4.522c-0.056-0.022-0.007-0.313-0.007-0.478
		c0.605-0.667,1.085-1.577,1.835-1.96c4.301-2.198,8.647-4.312,13.025-6.353C92.852,66.474,93.993,66.447,95.044,66.229z"/>
	<path fill-rule="evenodd" clip-rule="evenodd" fill="#D2D5DD" d="M48.044,94.229c3.99-7.49,7.978-14.982,11.986-22.462
		c0.104-0.195,0.444-0.263,1.014-0.579c0,5.487,0,10.764,0,16.041c-2.919,0.771-5.217,2.005-8.036,4.57
		C51.563,93.113,50.057,94.147,48.044,94.229z"/>
	<path fill-rule="evenodd" clip-rule="evenodd" fill="#E1D2CA" d="M59.044,49.229c-0.333,0.333-0.667,0.667-1,1
		C58.377,49.895,58.71,49.562,59.044,49.229z"/>
	<path fill-rule="evenodd" clip-rule="evenodd" fill="#E1D2CA" d="M58.044,51.229c-0.333,0.333-0.667,0.667-1,1
		C57.377,51.895,57.71,51.562,58.044,51.229z"/>
	<path fill-rule="evenodd" clip-rule="evenodd" fill="#E1D2CA" d="M57.044,53.229c-0.333,0.333-0.667,0.667-1,1
		C56.377,53.895,56.71,53.562,57.044,53.229z"/>
	<path fill-rule="evenodd" clip-rule="evenodd" fill="#E0E8BB" d="M98.044,98.229c0.333-0.333,0.667-0.667,1-1
		C98.71,97.562,98.377,97.895,98.044,98.229z"/>
	<path fill-rule="evenodd" clip-rule="evenodd" fill="#E0E8BB" d="M97.044,101.229c0.333-0.333,0.667-0.667,1-1
		C97.71,100.562,97.377,100.895,97.044,101.229z"/>
	<path fill-rule="evenodd" clip-rule="evenodd" fill="#ECE8B8" d="M89.044,85.229c-1,3.333-2,6.667-3,10
		c-1.353,0.346-2.38-0.39-2.848-1.409c-2.289-4.991-4.656-9.961-6.137-15.278c-0.078-0.28,0.066-0.622,0.164-1.378
		c3.312,1.984,6.362,3.988,8.925,6.682C86.95,84.689,87.691,85.575,89.044,85.229z"/>
	<path fill-rule="evenodd" clip-rule="evenodd" fill="#DCE0CE" d="M83.044,104.229c-0.333,0.334-0.667,0.666-1,1
		C82.377,104.895,82.71,104.563,83.044,104.229z"/>
	<path fill-rule="evenodd" clip-rule="evenodd" fill="#C5E6C9" d="M124.044,64.229c-0.334-0.333-0.666-0.667-1-1
		C123.378,63.562,123.71,63.895,124.044,64.229z"/>
	<path fill-rule="evenodd" clip-rule="evenodd" fill="#C5E6C9" d="M125.044,67.229c-0.334-0.333-0.666-0.667-1-1
		C124.378,66.562,124.71,66.895,125.044,67.229z"/>
	<path fill-rule="evenodd" clip-rule="evenodd" fill="#D7D5D9" d="M30.044,99.229c0-9.904,0-19.809,0-29.713
		c0.196-0.098,0.392-0.195,0.587-0.293c0.471,0.818,0.965,1.624,1.409,2.456c2.674,5.017,5.351,10.032,7.977,15.074
		c0.204,0.391,0.027,0.979,0.027,1.476c-1.087,1.468-2.901,1.364-4.377,1.968c-1.422,0.583-2.95,0.905-4.623,1.398
		c0,2.073,0.056,4.212-0.045,6.344C30.978,98.383,30.377,98.799,30.044,99.229z"/>
	<path fill-rule="evenodd" clip-rule="evenodd" fill="#D7D5D9" d="M41.044,89.229c0.333,0.333,0.667,0.667,1,1
		C41.71,89.895,41.377,89.562,41.044,89.229z"/>
	<path fill-rule="evenodd" clip-rule="evenodd" fill="#D7D5D9" d="M42.044,91.229c0.333,0.333,0.667,0.667,1,1
		C42.71,91.895,42.377,91.562,42.044,91.229z"/>
	<path fill-rule="evenodd" clip-rule="evenodd" fill="#D7D5D9" d="M43.044,93.229c0.333,0.333,0.667,0.667,1,1
		C43.71,93.895,43.377,93.562,43.044,93.229z"/>
	<path fill-rule="evenodd" clip-rule="evenodd" fill="#C5E7CB" d="M109.815,60.438c1.89,6.722,3.779,13.443,5.809,20.656
		c-2.486,0.053-4.42,0.11-6.354,0.13c-1.972,0.021-3.944,0.004-6.291,0.004c2.101-7.167,4.122-14.062,6.143-20.956
		C109.353,60.328,109.584,60.383,109.815,60.438z"/>
</g>
<g>
</g>
<g>
</g>
<g>
</g>
<g>
</g>
<g>
</g>
<g>
</g>
<g>
</g>
<g>
</g>
<g>
</g>
<g>
</g>
<g>
</g>
<g>
</g>
<g>
</g>
<g>
</g>
<g>
</g>
</svg>
