<svg xmlns="http://www.w3.org/2000/svg" height="40" viewBox="0 96 960 960" width="40"><path d="M179.702 853.462q-23.417 0-40.149-16.733-16.733-16.732-16.733-40.166V355.437q0-23.434 16.733-40.166 16.732-16.733 40.149-16.733h600.595q23.418 0 40.15 16.733 16.733 16.732 16.733 40.166v441.126q0 23.434-16.733 40.166-16.732 16.733-40.15 16.733H179.702ZM480 572.295 155.256 357v439.411q0 10.769 6.923 17.692t17.692 6.923h600.258q10.769 0 17.692-6.923t6.923-17.692V357L480 572.295Zm0-36.834 311.026-204.487H169.641L480 535.461ZM155.256 357v-26.026 465.437q0 10.769 6.923 17.692t17.692 6.923h-24.615V357Z"/></svg>